<svg xmlns="http://www.w3.org/2000/svg" xmlns:xlink="http://www.w3.org/1999/xlink" width="500" zoomAndPan="magnify" viewBox="0 0 375 374.999991" height="500" preserveAspectRatio="xMidYMid meet" version="1.0"><defs><g/><clipPath id="e7737856b2"><path d="M 5.894531 5.894531 L 369.105469 5.894531 L 369.105469 369.105469 L 5.894531 369.105469 Z M 5.894531 5.894531 " clip-rule="nonzero"/></clipPath><clipPath id="9ed37823a3"><path d="M 23.144531 5.894531 L 351.855469 5.894531 C 356.433594 5.894531 360.820312 7.710938 364.054688 10.945312 C 367.289062 14.179688 369.105469 18.566406 369.105469 23.144531 L 369.105469 351.855469 C 369.105469 356.433594 367.289062 360.820312 364.054688 364.054688 C 360.820312 367.289062 356.433594 369.105469 351.855469 369.105469 L 23.144531 369.105469 C 18.566406 369.105469 14.179688 367.289062 10.945312 364.054688 C 7.710938 360.820312 5.894531 356.433594 5.894531 351.855469 L 5.894531 23.144531 C 5.894531 18.566406 7.710938 14.179688 10.945312 10.945312 C 14.179688 7.710938 18.566406 5.894531 23.144531 5.894531 Z M 23.144531 5.894531 " clip-rule="nonzero"/></clipPath></defs><g clip-path="url(#e7737856b2)"><g clip-path="url(#9ed37823a3)"><path fill="#0f172a" d="M 5.894531 5.894531 L 369.105469 5.894531 L 369.105469 369.105469 L 5.894531 369.105469 Z M 5.894531 5.894531 " fill-opacity="1" fill-rule="nonzero"/></g></g><g fill="#57d9d5" fill-opacity="1"><g transform="translate(45.585146, 340.700815)"><g><path d="M 200.171875 -275.890625 L 268.84375 -275.890625 L 268.84375 -67.21875 C 268.84375 -54.6875 265.757812 -43.234375 259.59375 -32.859375 C 253.4375 -22.492188 245.171875 -14.226562 234.796875 -8.0625 C 224.429688 -1.90625 212.890625 1.171875 200.171875 1.171875 L 200.171875 -164.359375 L 142.046875 -94.796875 L 83.359375 -161.71875 L 83.359375 -67.21875 C 83.359375 -54.6875 80.273438 -43.234375 74.109375 -32.859375 C 67.941406 -22.492188 59.671875 -14.226562 49.296875 -8.0625 C 38.929688 -1.90625 27.488281 1.171875 14.96875 1.171875 L 14.96875 -207.796875 C 14.96875 -220.515625 18 -232.054688 24.0625 -242.421875 C 30.132812 -252.796875 38.351562 -261.066406 48.71875 -267.234375 C 59.09375 -273.398438 70.640625 -276.484375 83.359375 -276.484375 L 142.046875 -189.3125 Z M 200.171875 -275.890625 "/></g></g></g></svg>